<svg width="163" height="68" viewBox="0 0 163 68" fill="none" xmlns="http://www.w3.org/2000/svg">
<path d="M30.1489 19.7541H0V25.4183H30.1489V19.7541Z" fill="#211551"/>
<path d="M162.086 19.7541H131.937V25.4183H162.086V19.7541Z" fill="#211551"/>
<path d="M0 27.9809V31.0937L30.1489 31.2798V27.9809H0Z" fill="#D6001C"/>
<path d="M131.937 27.9809V31.0937L162.086 31.2798V27.9809H131.937Z" fill="#D6001C"/>
<path d="M81.0365 21.5531H70.7641L81.1255 14.8088L81.0365 21.5531ZM124.661 28.7412C124.474 24.6612 122.2 21.4624 117.855 21.4608H101.649V16.0781H124.682V7.85773H93.1332V21.5531H89.505L89.5193 7.85932H79.0672L56.9368 21.5531H45.7848V16.0781H58.9553L72.4454 7.85773H37.4324V42.1614H45.7832V29.7655H57.4299V29.7735H81.1255V42.1423H89.5941V29.7735H116.314V33.3222H93.208V42.1407H117.855C122.317 42.1407 124.672 38.7335 124.672 34.547L124.661 28.7396V28.7412ZM29.5731 0V49.9873H53.6441V37.6296H73.2678V50H117.856C126.36 50 132.532 43.4991 132.532 34.5406L132.541 0H29.5731ZM128.231 4.30903V19.6284H123.678C126.344 21.4481 128.024 24.6071 128.207 28.5773L128.21 28.6553L128.221 34.5406C128.221 41.1099 123.957 45.691 117.855 45.691H77.5752V33.3206H54.0545V33.3158H49.3351V45.7117H33.8805V4.30903H128.232H128.231Z" fill="#211551"/>
<path d="M31.9389 67.7692V59.033H29V56.2308H37.62V59.033H34.667V67.7692H31.9389Z" fill="#211551"/>
<path d="M43.3172 67.7692V56.2308H47.9717C49.4764 56.2308 50.5169 56.6923 51.1779 57.467C51.7544 58.1429 52.0497 59.0165 52.0497 60.1538V60.1868C52.0497 61.967 51.2482 63.1374 50.0248 63.7473L52.3731 67.7692H49.2373L47.2546 64.2747H46.0453V67.7692H43.3172ZM46.0453 61.7692H47.8592C48.7733 61.7692 49.3217 61.2418 49.3217 60.4011V60.3681C49.3217 59.4451 48.7451 58.9835 47.8452 58.9835H46.0453V61.7692Z" fill="#211551"/>
<path d="M56.9721 67.7692L61.1485 56.1484H63.7781L67.9686 67.7692H65.0437L64.3406 65.6923H60.5298L59.8267 67.7692H56.9721ZM61.3313 63.2033H63.5391L62.4422 59.9396L61.3313 63.2033Z" fill="#211551"/>
<path d="M73.4938 67.7692V56.2308H76.2218V67.7692H73.4938Z" fill="#211551"/>
<path d="M82.5236 67.7692V56.2308H85.0689L89.1187 62.3297V56.2308H91.8186V67.7692H89.4421L85.2235 61.4396V67.7692H82.5236Z" fill="#211551"/>
<path d="M98.1346 67.7692V56.2308H100.863V67.7692H98.1346Z" fill="#211551"/>
<path d="M107.164 67.7692V56.2308H109.71L113.759 62.3297V56.2308H116.459V67.7692H114.083L109.864 61.4396V67.7692H107.164Z" fill="#211551"/>
<path d="M127.725 68C124.66 68 122.382 65.5275 122.382 62.033V62C122.382 58.6374 124.632 56 127.669 56C129.399 56 130.622 56.6099 131.663 57.6648L130.059 59.9396C129.356 59.2473 128.667 58.8516 127.683 58.8516C126.263 58.8516 125.166 60.2363 125.166 62V62.033C125.166 63.9121 126.277 65.2473 127.838 65.2473C128.513 65.2473 129.019 65.0824 129.413 64.7692V63.3681H127.486V61.0275H132V66.2033C130.959 67.2253 129.525 68 127.725 68Z" fill="#211551"/>
</svg>
